<svg xmlns="http://www.w3.org/2000/svg" xmlns:xlink="http://www.w3.org/1999/xlink" version="1.1" width="591.677" height="591.677" style="enable-background:new 0 0 591.677 591.677;" xml:space="preserve"><rect id="backgroundrect" width="100%" height="100%" x="0" y="0" fill="none" stroke="none"/>
















<g class="currentLayer"><title>Layer 1</title><g id="svg_1" class="selected" fill-opacity="1" fill="#79b9bf">
	<path d="M231.054,516.989c0,8.522-6.805,15.41-15.187,15.41H52.648c-8.373,0-15.183-6.888-15.183-15.41V150.229   c0-8.514,6.801-15.419,15.183-15.419h163.219c8.382,0,15.187,6.915,15.187,15.419V516.989L231.054,516.989z M229.991,97.389   h-27.417c-15.705,0-18.467-11.043-18.88-16.708V51.996c0-16.7-15.805-30.37-35.222-30.37h-29.447   c-19.435,0-35.235,13.661-35.235,30.37v27.299c0,16.636-13.883,18.022-17.613,18.094H37.493C16.691,97.389,0,111.059,0,127.759   v411.909c0,16.699,16.691,30.383,37.493,30.383h192.498c20.816,0,37.516-13.684,37.516-30.383V127.759   C267.507,111.059,250.816,97.389,229.991,97.389L229.991,97.389z" id="svg_2" fill="#79b9bf"/>
	<g id="svg_3" fill="#79b9bf">
		<path d="M183.362,227.794h-18.739c-22.71-0.354-26.431,20.907-26.431,20.907l-22.451,101.73c-2.875,2.353-6.046,0-6.046,0    l-9.94-106.028c-1.422-15.251-11.58-16.519-14.206-16.609H82.3c-14.96,0-16.336,11.807-16.409,15.605v79.293v32.791v130.65    c0.373,6.16,2.894,17.317,16.654,17.317h99.4c20.407,0,19.68-22.533,19.68-22.533V355.483v-32.791v-77.576    C201.616,227.077,183.362,227.794,183.362,227.794L183.362,227.794z" id="svg_4" fill="#79b9bf"/>
		<path d="M503.967,390.964c-5.242,3.997-10.621,7.468-15.927,10.467c0,0-49.991,30.823-82.264,30.224    c-2.689-0.545-3.198-5.174-1.891-11.371c9.486-20.134,29.802-40.877,42.795-52.853c3.853-3.316,7.796-6.724,11.621-10.23    c0.027-0.036,0.154-0.118,0.154-0.118h-0.036c4.688-4.243,9.194-8.577,13.229-12.848c0.236-0.235,0.454-0.381,0.709-0.617    c14.292-13.529,15.955-22.97,15.719-27.412c0.055-0.291,0.146-0.646,0.199-0.954c-0.091-0.5-0.326-0.918-0.509-1.354    c-0.118-0.382-0.199-0.654-0.199-0.654h-0.036c-2.78-5.098-12.448-5.27-12.512-5.27c-27.721,8.059-86.38,28.611-122.623,66.472    c-0.154,0.146-0.19,0.091-0.327,0.255c-8.868,8.577-11.857-2.254-12.103-3.172c1.481-9.812,6.324-22.832,15.9-35.688    c-0.027,0-0.1,0-0.118,0c0.146-0.146,0.327-0.282,0.437-0.473c0.809-1.072,1.726-2.117,2.58-3.171l-0.063-0.037    c0,0,21.588-39.723,99.281-64.069c0.036-0.027,0.091-0.027,0.127-0.045c17.618-7.101,34.49-12.534,48.846-16.536    c0.091,0,0.118-0.055,0.173-0.073c11.957-3.489,48.582-12.934,48.582-12.934v0.009c3.471-1.431,7.087-1.899,6.706,3.117    C560.454,269.013,550.732,353.675,503.967,390.964L503.967,390.964z M591.092,176.641c0-0.045,0-0.073,0-0.123    c-0.545-17.582-14.41-4.193-14.41-4.193v-0.25c-44.521,38.434-90.241,56.519-118.244,62.92    c-30.783,7.064-115.709,36.593-142.784,108.722c-32.5,109.689-4.152,189.282,13.883,224.789c0.282,0.2,4.743,3.362,6.896-0.072    c0.072-0.072,0.127-0.072,0.19-0.127c-34.989-152.157,36.289-185.966,87.479-214.786c9.276-5.097,17.463-9.903,25.177-14.556    c-0.3,0.2-0.563,0.382-0.872,0.618c-99.791,70.733-99.019,110.825-99.582,139.282c-0.381,20.17,6.77,20.025,15.755,14.9    c4.38-1.727,87.507-34.49,115.736-52.189c0.027,0,0.027,0,0.055-0.036c16.464-8.795,35.263-21.139,52.462-38.011    C592.909,341.863,593.173,220.648,591.092,176.641L591.092,176.641z" id="svg_5" fill="#79b9bf"/>
	</g>
</g><g id="svg_6">
</g><g id="svg_7">
</g><g id="svg_8">
</g><g id="svg_9">
</g><g id="svg_10">
</g><g id="svg_11">
</g><g id="svg_12">
</g><g id="svg_13">
</g><g id="svg_14">
</g><g id="svg_15">
</g><g id="svg_16">
</g><g id="svg_17">
</g><g id="svg_18">
</g><g id="svg_19">
</g><g id="svg_20">
</g></g></svg>