<svg xmlns="http://www.w3.org/2000/svg" xmlns:xlink="http://www.w3.org/1999/xlink" version="1.1" width="595.0900268554688" height="595.0900268554688" style="enable-background:new 0 0 595.09 595.09;" xml:space="preserve"><rect id="backgroundrect" width="100%" height="100%" x="0" y="0" fill="none" stroke="none"/>
















<g class="currentLayer"><title>Layer 1</title><g id="svg_1" class="selected" fill="#79b9bf" fill-opacity="1">
	<path d="M396.472,392.569c0,0,7.542,8.023,17.391,11.112l37.507,11.621c0,0,7.978,3.988,0.027,5.824l-71.343,16.413   c-7.296,1.69-8.377-2.726-8.495-4.833v-60.862c0,0,0.055-11.066,8.723,0c0,0,0,0,0,0.036L396.472,392.569L396.472,392.569z    M142.413,414.64l35.816-13.147c14.465-5.352,24.805-17.6,24.805-17.6l11.889-14.506c0,0,7.15-8.345,7.15,0v62.32   c-0.272,2.835-2.012,7.305-11.03,5.233l-68.662-15.786C133.131,419.019,142.413,414.64,142.413,414.64L142.413,414.64   L142.413,414.64z M297.545,34.072c145.538,0,263.454,117.944,263.454,263.477c0,56.36-17.862,108.44-47.964,151.293   c0.091-6.724-3.362-14.191-6.369-19.152c-3.717-7.183-0.781-12.262-0.781-12.262l3.925-8.94c0-0.036,0-0.036,0-0.036   c6.487-14.684-5.606-20.925-5.606-20.925l-54.615-25.582c-20.389-9.581-29.602-22.101-29.602-22.101   c-14.174-18.949-40.45-54.397-52.08-72.47c-16.301-25.381-37.144-19.943-37.144-19.943h-73.377   c-15.437,0-29.011,15.433-29.011,15.433l-52.566,76.58c-9.854,14.383-21.497,20.389-24.955,21.915l-55.542,24.114   c-16.636,7.269-13.938,19.008-11.471,24.532c1.354,2.525,2.939,5.506,4.77,8.831c0.968,1.89,3.425,7.832-0.391,14.233   c-0.027,0.018,0,0.055-0.027,0.108c-4.17,5.233-5.947,10.485-6.242,15.537c-30.092-42.835-47.887-94.889-47.887-151.175   C34.072,152.007,152.034,34.072,297.545,34.072L297.545,34.072z M297.545,0C133.217,0,0,133.195,0,297.549   C0,461.872,133.217,595.09,297.545,595.09c164.336,0,297.545-133.218,297.545-297.541C595.09,133.195,461.881,0,297.545,0   L297.545,0z" id="svg_2" fill="#79b9bf" fill-opacity="1"/>
	<path d="M297.545,224.803c28.512,0,51.645-23.124,51.645-51.648c0-28.525-23.133-51.645-51.645-51.645   c-28.493,0-51.608,23.119-51.608,51.645C245.937,201.68,269.052,224.803,297.545,224.803L297.545,224.803z" id="svg_3" fill="#79b9bf" fill-opacity="1"/>
</g><g id="svg_4">
</g><g id="svg_5">
</g><g id="svg_6">
</g><g id="svg_7">
</g><g id="svg_8">
</g><g id="svg_9">
</g><g id="svg_10">
</g><g id="svg_11">
</g><g id="svg_12">
</g><g id="svg_13">
</g><g id="svg_14">
</g><g id="svg_15">
</g><g id="svg_16">
</g><g id="svg_17">
</g><g id="svg_18">
</g></g></svg>